<svg width="20" height="20" viewBox="0 0 20 20" fill="none" xmlns="http://www.w3.org/2000/svg">
<path d="M18.9762 1.15618C18.6343 0.796623 18.2238 0.509121 17.7691 0.310609C17.3143 0.112098 16.8244 0.00658952 16.3282 0.000298919C15.832 -0.00599168 15.3396 0.0870625 14.88 0.273981C14.4203 0.460899 14.0027 0.737903 13.6517 1.08868L1.93128 12.8083C1.52135 13.2181 1.23685 13.7363 1.11116 14.3021L0.014751 19.24C-0.00795565 19.3426 -0.00439997 19.4493 0.0250888 19.5503C0.0545775 19.6512 0.109047 19.743 0.183456 19.8173C0.257864 19.8916 0.349809 19.9459 0.45078 19.9752C0.551751 20.0045 0.658487 20.0079 0.761109 19.985L5.66932 18.8937C6.2537 18.7636 6.78886 18.4696 7.21204 18.0461L18.9112 6.3478C19.597 5.6618 19.9876 4.73507 19.9997 3.76521C20.0119 2.79536 19.6446 1.85913 18.9762 1.15618ZM14.5356 1.97374C15.0016 1.5261 15.6245 1.27897 16.2707 1.28539C16.9169 1.29181 17.5348 1.55127 17.9918 2.00809C18.4488 2.4649 18.7085 3.08266 18.7151 3.72877C18.7218 4.37489 18.4749 4.99786 18.0274 5.46399L17.1885 6.3028L13.6967 2.81255L14.5356 1.97374ZM12.8129 3.69636L16.3046 7.18786L6.32816 17.1636C6.07291 17.4185 5.75026 17.5955 5.39803 17.6736L1.44746 18.5512L2.33259 14.5734C2.40622 14.2394 2.57414 13.9335 2.81641 13.6921L12.8129 3.69636Z" fill="white"/>
</svg>
