<svg width="25" height="12" viewBox="0 0 25 12" fill="none" xmlns="http://www.w3.org/2000/svg">
<path d="M0.550289 0.458879C0.902744 0.165059 1.38071 0 1.87909 0C2.37746 0 2.85543 0.165059 3.20788 0.458879L12.5113 8.21692L21.8148 0.458879C22.1693 0.173386 22.644 0.0154122 23.1368 0.0189831C23.6296 0.022554 24.101 0.187384 24.4495 0.47797C24.798 0.768557 24.9956 1.16165 24.9999 1.57259C25.0042 1.98352 24.8148 2.37942 24.4724 2.67501L13.8401 11.5411C13.4877 11.8349 13.0097 12 12.5113 12C12.013 12 11.535 11.8349 11.1825 11.5411L0.550289 2.67501C0.197939 2.3811 0 1.98253 0 1.56695C0 1.15136 0.197939 0.752787 0.550289 0.458879V0.458879Z" fill="#A7A7A7"/>
</svg>
