<svg width="30" height="15" viewBox="0 0 30 15" fill="none" xmlns="http://www.w3.org/2000/svg">
<path d="M0.660346 14.4264C1.08329 14.7937 1.65686 15 2.2549 15C2.85295 15 3.42651 14.7937 3.84946 14.4264L15.0136 4.72885L26.1778 14.4264C26.6031 14.7833 27.1729 14.9807 27.7642 14.9763C28.3556 14.9718 28.9212 14.7658 29.3394 14.4025C29.7576 14.0393 29.9948 13.5479 29.9999 13.0343C30.0051 12.5206 29.7777 12.0257 29.3669 11.6562L16.6082 0.573598C16.1852 0.206324 15.6117 -1.0661e-07 15.0136 -1.0661e-07C14.4156 -1.0661e-07 13.842 0.206324 13.4191 0.573598L0.660346 11.6562C0.237527 12.0236 0 12.5218 0 13.0413C0 13.5608 0.237527 14.059 0.660346 14.4264V14.4264Z" fill="black"/>
</svg>
