<svg width="31" height="31" viewBox="0 0 31 31" fill="none" xmlns="http://www.w3.org/2000/svg">
<path d="M22.7499 20.0418C24.626 17.4818 25.4663 14.3078 25.1026 11.1548C24.739 8.00182 23.1983 5.10241 20.7887 3.03663C18.3791 0.970851 15.2784 -0.108951 12.1069 0.0132529C8.93539 0.135457 5.92696 1.45066 3.68349 3.69572C1.44003 5.94079 0.126984 8.95016 0.00704953 12.1218C-0.112885 15.2934 0.969136 18.3933 3.03664 20.8014C5.10414 23.2095 8.00465 24.7481 11.1579 25.1095C14.3111 25.4709 17.4845 24.6283 20.0432 22.7504H20.0413C20.0994 22.8279 20.1614 22.9016 20.2312 22.9733L27.6905 30.4326C28.0538 30.7962 28.5467 31.0005 29.0606 31.0007C29.5746 31.0009 30.0676 30.7969 30.4311 30.4336C30.7947 30.0703 30.999 29.5775 30.9992 29.0635C30.9994 28.5495 30.7954 28.0566 30.4321 27.693L22.9727 20.2336C22.9035 20.1635 22.829 20.0987 22.7499 20.0399V20.0418ZM23.2498 12.5941C23.2498 13.9935 22.9742 15.3792 22.4386 16.672C21.9031 17.9649 21.1182 19.1396 20.1286 20.1292C19.1391 21.1187 17.9644 21.9036 16.6715 22.4392C15.3786 22.9747 13.9929 23.2503 12.5935 23.2503C11.1941 23.2503 9.80844 22.9747 8.51557 22.4392C7.22269 21.9036 6.04795 21.1187 5.05843 20.1292C4.06891 19.1396 3.28397 17.9649 2.74845 16.672C2.21292 15.3792 1.93729 13.9935 1.93729 12.5941C1.93729 9.76785 3.06 7.05739 5.05843 5.05896C7.05686 3.06053 9.76732 1.93782 12.5935 1.93782C15.4197 1.93782 18.1302 3.06053 20.1286 5.05896C22.1271 7.05739 23.2498 9.76785 23.2498 12.5941Z" fill="black"/>
</svg>
