<svg width="30" height="15" viewBox="0 0 30 15" fill="none" xmlns="http://www.w3.org/2000/svg">
<path d="M0.660346 0.573599C1.08329 0.206324 1.65686 0 2.2549 0C2.85295 0 3.42651 0.206324 3.84946 0.573599L15.0136 10.2711L26.1778 0.573599C26.6031 0.216732 27.1729 0.0192653 27.7642 0.0237289C28.3556 0.0281926 28.9212 0.23423 29.3394 0.597463C29.7576 0.960696 29.9948 1.45206 29.9999 1.96573C30.0051 2.4794 29.7777 2.97428 29.3669 3.34377L16.6082 14.4264C16.1852 14.7937 15.6117 15 15.0136 15C14.4156 15 13.842 14.7937 13.4191 14.4264L0.660346 3.34377C0.237527 2.97638 0 2.47817 0 1.95868C0 1.4392 0.237527 0.940984 0.660346 0.573599V0.573599Z" fill="black"/>
</svg>
